<?xml version="1.0" encoding="utf-8"?>
<!-- Generator: Adobe Illustrator 21.0.2, SVG Export Plug-In . SVG Version: 6.00 Build 0)  -->
<svg version="1.1" id="Layer_1" xmlns="http://www.w3.org/2000/svg" xmlns:xlink="http://www.w3.org/1999/xlink" x="0px" y="0px"
	 viewBox="0 0 512 512" style="enable-background:new 0 0 512 512;" xml:space="preserve">
<style type="text/css">
	.st0{fill:#008982;}
	.st1{fill:#009696;}
	.st2{fill:#006A6D;}
	.st3{fill:#2BBDC1;}
	.st4{fill:#00B7C3;}
	.st5{fill:#DDDDDD;}
	.st6{fill:#FFFFFF;}
	.st7{fill:#FDFFFF;}
</style>
<polygon class="st0" points="503.8,32.7 503.8,98 449.4,119.8 471.1,32.7 "/>
<polygon class="st1" points="471.1,32.7 471.1,119.8 305,119.8 326.8,32.7 "/>
<polygon class="st2" points="8.2,32.7 8.2,98 40.9,119.8 326.8,119.8 326.8,32.7 "/>
<polygon class="st3" points="503.8,98 503.8,479.3 471.1,479.3 427.6,288.7 471.1,98 "/>
<rect x="8.2" y="98" class="st4" width="463" height="381.3"/>
<polygon class="st5" points="326.8,32.7 326.8,359.5 305,342.1 283.2,187.4 305,32.7 "/>
<polygon class="st6" points="305,32.7 305,342.1 256,302.8 234.2,167.8 256,32.7 "/>
<polygon class="st7" points="185.2,32.7 185.2,359.5 256,302.8 256,32.7 "/>
<path d="M503.8,24.5H359.5c-4.5,0-8.2,3.7-8.2,8.2s3.7,8.2,8.2,8.2h136.2v49H335V32.7c0-4.5-3.7-8.2-8.2-8.2H185.2
	c-4.5,0-8.2,3.7-8.2,8.2v57.2H16.3v-49h136.2c4.5,0,8.2-3.7,8.2-8.2s-3.7-8.2-8.2-8.2H8.2c-4.5,0-8.2,3.7-8.2,8.2v446.6
	c0,4.5,3.7,8.2,8.2,8.2h495.7c4.5,0,8.2-3.7,8.2-8.2v-87.1c0-4.5-3.7-8.2-8.2-8.2s-8.2,3.7-8.2,8.2v79H16.3V106.2H177v253.3
	c0,3.1,1.8,6,4.6,7.4c2.8,1.4,6.2,1,8.6-1l65.7-52.6l65.7,52.6c1.5,1.2,3.3,1.8,5.1,1.8c1.2,0,2.4-0.3,3.5-0.8
	c2.8-1.4,4.6-4.2,4.6-7.4V106.2h160.7v253.3c0,4.5,3.7,8.2,8.2,8.2s8.2-3.7,8.2-8.2V32.7C512,28.2,508.3,24.5,503.8,24.5z
	 M318.6,342.5l-57.5-46c-1.5-1.2-3.3-1.8-5.1-1.8c-1.8,0-3.6,0.6-5.1,1.8l-57.5,46V40.9h54.5v229.3c0,4.5,3.7,8.2,8.2,8.2
	s8.2-3.7,8.2-8.2V40.9h54.5L318.6,342.5L318.6,342.5z"/>
<path d="M424.3,65.4c0-4.8-3.9-8.7-8.7-8.7s-8.7,3.9-8.7,8.7s3.9,8.7,8.7,8.7C420.4,74.1,424.3,70.2,424.3,65.4z"/>
<path d="M379.6,65.4c0-4.8-3.9-8.7-8.7-8.7s-8.7,3.9-8.7,8.7s3.9,8.7,8.7,8.7S379.6,70.2,379.6,65.4z"/>
<path d="M469,65.4c0-4.8-3.9-8.7-8.7-8.7s-8.7,3.9-8.7,8.7s3.9,8.7,8.7,8.7C465.1,74.1,469,70.2,469,65.4z"/>
</svg>
