<?xml version="1.0" encoding="utf-8"?>
<!-- Generator: Adobe Illustrator 21.0.2, SVG Export Plug-In . SVG Version: 6.00 Build 0)  -->
<svg version="1.1" id="Capa_1" xmlns="http://www.w3.org/2000/svg" xmlns:xlink="http://www.w3.org/1999/xlink" x="0px" y="0px"
	 viewBox="0 0 383 383" style="enable-background:new 0 0 383 383;" xml:space="preserve">
<style type="text/css">
	.st0{fill:none;}
	.st1{fill:#36D3D6;}
	.st2{fill:#00B7C3;}
</style>
<path class="st0" d="M346.6,24H36.4C29.6,24,24,29.6,24,36.4v310.2c0,6.8,5.6,12.4,12.4,12.4h310.2c6.8,0,12.4-5.6,12.4-12.4V36.4
	C359,29.6,353.4,24,346.6,24z M286.4,201L111.2,335.8c-2.1,1.6-4.7,2.5-7.3,2.5c-1.8,0-3.6-0.4-5.3-1.2c-4.1-2-6.7-6.2-6.7-10.8
	V56.7c0-4.6,2.6-8.7,6.7-10.8c4.1-2,9-1.5,12.6,1.3L286.4,182c3,2.3,4.7,5.8,4.7,9.5C291.1,195.2,289.4,198.7,286.4,201z"/>
<path class="st1" d="M115.8,301.9l143.6-110.4L115.8,81.1C115.8,81.1,115.8,301.9,115.8,301.9z M140.7,238.1l74.1-57
	c5.3-4,12.8-3.1,16.8,2.2c4,5.3,3.1,12.8-2.2,16.8l-74.1,57c-2.2,1.7-4.8,2.5-7.3,2.5c-3.6,0-7.2-1.6-9.5-4.7
	C134.5,249.6,135.4,242.1,140.7,238.1z"/>
<path class="st2" d="M346.6,0H36.4C16.3,0,0,16.3,0,36.4v310.2C0,366.6,16.3,383,36.4,383h310.2c20.1,0,36.4-16.3,36.4-36.4V36.4
	C383,16.3,366.6,0,346.6,0z M359,346.6c0,6.8-5.6,12.4-12.4,12.4H36.4c-6.8,0-12.4-5.6-12.4-12.4V36.4C24,29.6,29.6,24,36.4,24
	h310.2c6.8,0,12.4,5.6,12.4,12.4L359,346.6L359,346.6z"/>
<path class="st2" d="M286.4,182L111.2,47.2c-3.6-2.8-8.5-3.3-12.6-1.3c-4.1,2-6.7,6.2-6.7,10.8v269.5c0,4.6,2.6,8.7,6.7,10.8
	c1.7,0.8,3.5,1.2,5.3,1.2c2.6,0,5.2-0.8,7.3-2.5L286.4,201c3-2.3,4.7-5.8,4.7-9.5C291.1,187.8,289.4,184.2,286.4,182z M115.8,301.9
	V81.1l143.6,110.4L115.8,301.9z"/>
<path class="st2" d="M148,259.6c2.6,0,5.1-0.8,7.3-2.5l74.1-57c5.3-4,6.2-11.6,2.2-16.8c-4-5.3-11.6-6.2-16.8-2.2l-74.1,57
	c-5.3,4-6.2,11.6-2.2,16.8C140.9,258,144.4,259.6,148,259.6z"/>
</svg>
